<svg width="101" height="30" viewBox="0 0 101 30" fill="none" xmlns="http://www.w3.org/2000/svg">
<path fill-rule="evenodd" clip-rule="evenodd" d="M10.2349 2.30932H13.9601L14.1464 2.49557L14.2861 2.68183C14.8805 3.79862 14.8542 3.90028 14.938 5.24292C14.9504 7.22505 13.8282 9.37564 15.0777 11.2033C16.0718 12.3163 17.5464 12.7796 18.8029 13.5316L19.222 13.9041L19.5945 14.2766L19.967 14.7423L20.2464 15.2545L20.5258 15.8599L20.6655 16.6049L20.8052 17.4431L20.8518 18.3744V27.6875H17.08V17.4431L16.9403 16.6049L16.754 15.9064L16.4746 15.3011L16.1952 14.7423L15.8227 14.3232L15.4502 13.9507C14.3916 12.913 12.865 12.6732 11.6318 11.5293C9.17085 8.89135 12.8076 5.2476 10.2349 2.30932Z" fill="#0063BE"/>
<path fill-rule="evenodd" clip-rule="evenodd" d="M10.2349 2.30932H13.9601L14.1464 2.49557L14.2861 2.68183C14.8805 3.79862 14.8542 3.90028 14.938 5.24292C14.9504 7.22505 13.8282 9.37564 15.0777 11.2033C16.0718 12.3163 17.5464 12.7796 18.8029 13.5316L19.222 13.9041L19.5945 14.2766L19.967 14.7423L20.2464 15.2545L20.5258 15.8599L20.6655 16.6049L20.8052 17.4431L20.8518 18.3744V27.6875H17.08V17.4431L16.9403 16.6049L16.754 15.9064L16.4746 15.3011L16.1952 14.7423L15.8227 14.3232L15.4502 13.9507C14.3916 12.913 12.865 12.6732 11.6318 11.5293C9.17085 8.89135 12.8076 5.2476 10.2349 2.30932Z" fill="white"/>
<path fill-rule="evenodd" clip-rule="evenodd" d="M3.25 2.30932H6.92867L7.11493 2.49557L7.25463 2.68183C7.64035 3.47189 7.96475 4.34421 7.85998 5.24292C7.89491 7.07682 6.95351 9.0124 7.81341 10.7842C8.41489 12.1703 10.5158 12.7113 11.7249 13.5316L12.5631 14.2766L12.889 14.7423L13.1684 15.2545L13.4478 15.8599L13.5875 16.6049L13.7272 17.4431L13.7738 18.3744V27.6875H10.0486V18.3744L10.002 17.4431L9.86229 16.6049L9.7226 15.9064C9.14053 14.5514 9.07456 14.5498 7.99968 13.5782C6.80062 12.7485 5.26939 12.3721 4.32101 11.2033C3.20188 9.71868 3.9935 7.49361 4.13475 5.80173V4.4979L3.99505 3.89253L3.90192 3.38033L3.71566 3.00777L3.52939 2.68183L3.3897 2.49557L3.25 2.35588V2.30932Z" fill="#0063BE"/>
<path fill-rule="evenodd" clip-rule="evenodd" d="M3.25 2.30932H6.92867L7.11493 2.49557L7.25463 2.68183C7.64035 3.47189 7.96475 4.34421 7.85998 5.24292C7.89491 7.07682 6.95351 9.0124 7.81341 10.7842C8.41489 12.1703 10.5158 12.7113 11.7249 13.5316L12.5631 14.2766L12.889 14.7423L13.1684 15.2545L13.4478 15.8599L13.5875 16.6049L13.7272 17.4431L13.7738 18.3744V27.6875H10.0486V18.3744L10.002 17.4431L9.86229 16.6049L9.7226 15.9064C9.14053 14.5514 9.07456 14.5498 7.99968 13.5782C6.80062 12.7485 5.26939 12.3721 4.32101 11.2033C3.20188 9.71868 3.9935 7.49361 4.13475 5.80173V4.4979L3.99505 3.89253L3.90192 3.38033L3.71566 3.00777L3.52939 2.68183L3.3897 2.49557L3.25 2.35588V2.30932Z" fill="white"/>
<path fill-rule="evenodd" clip-rule="evenodd" d="M17.2197 2.30932H20.945L20.9915 2.35588L21.0847 2.49557L21.2244 2.68183L21.4106 3.00777L21.5969 3.38033L21.7831 3.89253L21.8763 4.4979C22.1626 6.59567 20.8293 8.75552 21.7831 10.7842C22.4816 12.1214 24.4436 12.7284 25.7412 13.5316L26.1137 13.9041L26.5328 14.2766L26.9053 14.7423L27.1847 15.2545L27.4641 15.8599L27.6038 16.6049L27.7901 17.4431V27.6875H24.0183V17.4431L23.8786 16.6049L23.6923 15.9064C23.1491 14.3605 23.0466 14.6368 22.016 13.5782C20.796 12.7804 19.2632 12.3985 18.3373 11.2033C17.1406 9.70781 17.9663 7.55725 18.1045 5.80173L18.151 5.24292L18.1045 4.4979L18.0113 3.89253L17.8716 3.38033L17.6854 3.00777L17.4991 2.68183L17.3594 2.49557L17.2197 2.35588V2.30932Z" fill="#0063BE"/>
<path fill-rule="evenodd" clip-rule="evenodd" d="M17.2197 2.30932H20.945L20.9915 2.35588L21.0847 2.49557L21.2244 2.68183L21.4106 3.00777L21.5969 3.38033L21.7831 3.89253L21.8763 4.4979C22.1626 6.59567 20.8293 8.75552 21.7831 10.7842C22.4816 12.1214 24.4436 12.7284 25.7412 13.5316L26.1137 13.9041L26.5328 14.2766L26.9053 14.7423L27.1847 15.2545L27.4641 15.8599L27.6038 16.6049L27.7901 17.4431V27.6875H24.0183V17.4431L23.8786 16.6049L23.6923 15.9064C23.1491 14.3605 23.0466 14.6368 22.016 13.5782C20.796 12.7804 19.2632 12.3985 18.3373 11.2033C17.1406 9.70781 17.9663 7.55725 18.1045 5.80173L18.151 5.24292L18.1045 4.4979L18.0113 3.89253L17.8716 3.38033L17.6854 3.00777L17.4991 2.68183L17.3594 2.49557L17.2197 2.35588V2.30932Z" fill="white"/>
<path fill-rule="evenodd" clip-rule="evenodd" d="M56.1484 24.3813V26.0577H58.2904L58.5232 25.8714L58.7094 25.7317L58.8026 25.4989L58.8491 25.173L58.8026 24.847L58.6629 24.5676L58.3369 24.4279L57.9644 24.3813H56.1484ZM49.6292 22.0531L48.8376 24.5676H50.3742L49.6292 22.0531ZM56.1484 21.4943V22.8447H57.8713L58.2438 22.7515L58.4766 22.6584L58.6163 22.4256L58.6629 22.1462L58.6163 21.9599L58.5232 21.7737L58.3835 21.634L58.1507 21.5408L57.8713 21.4943H56.1484ZM62.0622 19.9111H64.0645V27.6875H62.0622V19.9111ZM54.2392 19.9111H57.9644L58.6629 19.9576L59.2682 20.0973L59.7805 20.2836L60.153 20.6096L60.3858 20.9355C60.8041 21.8916 60.6699 22.9494 59.6873 23.45C60.8165 24.0399 60.874 24.5792 60.7583 25.8249L60.5721 26.3371L60.2461 26.8027L59.827 27.1753L59.3148 27.4546L58.6629 27.5944L57.9178 27.6875H54.2392V19.9111ZM48.6047 19.9111H50.6071L53.4476 27.6875H51.3521L50.8865 26.1508H48.2788L47.8597 27.6875H45.7643L48.6047 19.9111ZM38.3604 19.9111H40.3627V22.8447L42.6909 19.9111H45.0658L42.7375 22.6118L45.4383 27.6875H43.0635L41.294 24.1951L40.3627 25.3592V27.6875H38.3604V19.9111Z" fill="#0063BE"/>
<path fill-rule="evenodd" clip-rule="evenodd" d="M56.1484 24.3813V26.0577H58.2904L58.5232 25.8714L58.7094 25.7317L58.8026 25.4989L58.8491 25.173L58.8026 24.847L58.6629 24.5676L58.3369 24.4279L57.9644 24.3813H56.1484ZM49.6292 22.0531L48.8376 24.5676H50.3742L49.6292 22.0531ZM56.1484 21.4943V22.8447H57.8713L58.2438 22.7515L58.4766 22.6584L58.6163 22.4256L58.6629 22.1462L58.6163 21.9599L58.5232 21.7737L58.3835 21.634L58.1507 21.5408L57.8713 21.4943H56.1484ZM62.0622 19.9111H64.0645V27.6875H62.0622V19.9111ZM54.2392 19.9111H57.9644L58.6629 19.9576L59.2682 20.0973L59.7805 20.2836L60.153 20.6096L60.3858 20.9355C60.8041 21.8916 60.6699 22.9494 59.6873 23.45C60.8165 24.0399 60.874 24.5792 60.7583 25.8249L60.5721 26.3371L60.2461 26.8027L59.827 27.1753L59.3148 27.4546L58.6629 27.5944L57.9178 27.6875H54.2392V19.9111ZM48.6047 19.9111H50.6071L53.4476 27.6875H51.3521L50.8865 26.1508H48.2788L47.8597 27.6875H45.7643L48.6047 19.9111ZM38.3604 19.9111H40.3627V22.8447L42.6909 19.9111H45.0658L42.7375 22.6118L45.4383 27.6875H43.0635L41.294 24.1951L40.3627 25.3592V27.6875H38.3604V19.9111Z" fill="white"/>
<path fill-rule="evenodd" clip-rule="evenodd" d="M46.8818 9.89972V11.6692H48.791L49.0704 11.5295L49.3032 11.3433L49.3964 11.0639L49.4429 10.7379L49.3964 10.4585L49.3032 10.2257L49.0704 10.0395L48.791 9.94628L48.4185 9.89972H46.8818ZM84.5067 8.22338H86.509V13.1593L86.6487 13.5319L86.835 13.9044L87.0678 14.1372L87.4403 14.3234L87.8594 14.37L88.2319 14.3234L88.5579 14.1372L88.8373 13.9044L89.0236 13.5319L89.1167 13.1593L89.1633 12.6471V8.22338H91.1656C90.949 11.1873 92.391 16.0619 87.8594 16.093C83.2805 16.103 84.7209 11.2214 84.5067 8.22338ZM81.2006 8.22338H83.2029V15.9998H81.2006V8.22338ZM73.0982 8.22338H74.8677L77.8944 12.4609V8.22338H79.757V15.9998H78.1738L75.0074 11.5295V15.9998H73.0982V8.22338ZM66.2531 8.22338H71.8875V9.94628H68.2088V11.0639H70.6768V12.7402H68.2088V14.3234H72.1669V15.9998H66.2531V8.22338ZM52.5162 8.22338H58.1507V9.94628H54.472V11.0639H56.94V12.7402H54.472V14.3234H58.4301V15.9998H52.5162V8.22338ZM44.9261 8.22338H49.0704L49.6758 8.36307L50.1414 8.54933L50.6071 8.78215L50.933 9.1547L51.2124 9.57377C51.6618 10.9335 51.3769 12.4112 49.9551 13.0196L51.4918 15.9998H49.3032L47.9994 13.299H46.8818V15.9998H44.9261V8.22338ZM38.3604 8.22338H44.181V9.94628H40.3161V11.1104H43.0635V12.8799H40.3161V15.9998H38.3604V8.22338ZM95.1236 8.08369C96.4919 8.12715 96.9925 8.24901 98.1038 9.06157L97.0794 10.5517L96.5672 10.2257L96.1015 9.99285L95.5893 9.89972L95.0305 9.85316H94.658L94.3786 9.94628L94.2389 10.086L94.1458 10.2257L94.0992 10.412L94.1458 10.5517L94.2855 10.7379L94.5183 10.831C95.3852 11.1166 96.266 11.2835 97.126 11.6692C98.5478 12.3731 98.5803 14.5268 97.4519 15.4876C96.0348 16.5438 93.1477 16.1651 91.8641 15.0219L92.9351 13.625C95.8043 15.483 97.8407 13.476 94.7977 12.9265C90.7286 12.4011 91.6514 7.91916 95.1236 8.08369ZM62.0622 8.08369C63.5492 8.13336 63.8588 8.26143 65.0889 9.06157L64.0179 10.5517L63.5523 10.2257L63.04 9.99285L62.5278 9.89972L61.969 9.85316H61.5965L61.3171 9.94628L61.1774 10.086L61.0843 10.2257L61.0377 10.412L61.0843 10.5517L61.224 10.7379L61.5034 10.831C62.3198 11.1314 63.2286 11.2835 64.0645 11.6692C65.4731 12.3522 65.5546 14.5912 64.3439 15.4876C62.9578 16.5648 60.0544 16.1333 58.8026 15.0219L59.9202 13.625L60.3392 13.9044L60.898 14.1372L61.5034 14.3234L62.1087 14.37H62.5278L62.8538 14.3234L63.04 14.1838C63.7517 13.2835 62.2989 13.0918 61.7362 12.9265C57.7611 12.4275 58.4984 7.96262 62.0622 8.08369Z" fill="#0063BE"/>
<path fill-rule="evenodd" clip-rule="evenodd" d="M46.8818 9.89972V11.6692H48.791L49.0704 11.5295L49.3032 11.3433L49.3964 11.0639L49.4429 10.7379L49.3964 10.4585L49.3032 10.2257L49.0704 10.0395L48.791 9.94628L48.4185 9.89972H46.8818ZM84.5067 8.22338H86.509V13.1593L86.6487 13.5319L86.835 13.9044L87.0678 14.1372L87.4403 14.3234L87.8594 14.37L88.2319 14.3234L88.5579 14.1372L88.8373 13.9044L89.0236 13.5319L89.1167 13.1593L89.1633 12.6471V8.22338H91.1656C90.949 11.1873 92.391 16.0619 87.8594 16.093C83.2805 16.103 84.7209 11.2214 84.5067 8.22338ZM81.2006 8.22338H83.2029V15.9998H81.2006V8.22338ZM73.0982 8.22338H74.8677L77.8944 12.4609V8.22338H79.757V15.9998H78.1738L75.0074 11.5295V15.9998H73.0982V8.22338ZM66.2531 8.22338H71.8875V9.94628H68.2088V11.0639H70.6768V12.7402H68.2088V14.3234H72.1669V15.9998H66.2531V8.22338ZM52.5162 8.22338H58.1507V9.94628H54.472V11.0639H56.94V12.7402H54.472V14.3234H58.4301V15.9998H52.5162V8.22338ZM44.9261 8.22338H49.0704L49.6758 8.36307L50.1414 8.54933L50.6071 8.78215L50.933 9.1547L51.2124 9.57377C51.6618 10.9335 51.3769 12.4112 49.9551 13.0196L51.4918 15.9998H49.3032L47.9994 13.299H46.8818V15.9998H44.9261V8.22338ZM38.3604 8.22338H44.181V9.94628H40.3161V11.1104H43.0635V12.8799H40.3161V15.9998H38.3604V8.22338ZM95.1236 8.08369C96.4919 8.12715 96.9925 8.24901 98.1038 9.06157L97.0794 10.5517L96.5672 10.2257L96.1015 9.99285L95.5893 9.89972L95.0305 9.85316H94.658L94.3786 9.94628L94.2389 10.086L94.1458 10.2257L94.0992 10.412L94.1458 10.5517L94.2855 10.7379L94.5183 10.831C95.3852 11.1166 96.266 11.2835 97.126 11.6692C98.5478 12.3731 98.5803 14.5268 97.4519 15.4876C96.0348 16.5438 93.1477 16.1651 91.8641 15.0219L92.9351 13.625C95.8043 15.483 97.8407 13.476 94.7977 12.9265C90.7286 12.4011 91.6514 7.91916 95.1236 8.08369ZM62.0622 8.08369C63.5492 8.13336 63.8588 8.26143 65.0889 9.06157L64.0179 10.5517L63.5523 10.2257L63.04 9.99285L62.5278 9.89972L61.969 9.85316H61.5965L61.3171 9.94628L61.1774 10.086L61.0843 10.2257L61.0377 10.412L61.0843 10.5517L61.224 10.7379L61.5034 10.831C62.3198 11.1314 63.2286 11.2835 64.0645 11.6692C65.4731 12.3522 65.5546 14.5912 64.3439 15.4876C62.9578 16.5648 60.0544 16.1333 58.8026 15.0219L59.9202 13.625L60.3392 13.9044L60.898 14.1372L61.5034 14.3234L62.1087 14.37H62.5278L62.8538 14.3234L63.04 14.1838C63.7517 13.2835 62.2989 13.0918 61.7362 12.9265C57.7611 12.4275 58.4984 7.96262 62.0622 8.08369Z" fill="white"/>
</svg>
