<svg width="101" height="30" viewBox="0 0 101 30" fill="none" xmlns="http://www.w3.org/2000/svg">
<path fill-rule="evenodd" clip-rule="evenodd" d="M9.85986 2.31127H13.5851L13.7714 2.49753L13.9111 2.68378C14.5055 3.80058 14.4792 3.90224 14.563 5.24487C14.5754 7.22701 13.4532 9.3776 14.7027 11.2053C15.6968 12.3182 17.1714 12.7815 18.4279 13.5336L18.847 13.9061L19.2195 14.2786L19.592 14.7443L19.8714 15.2565L20.1508 15.8618L20.2905 16.6069L20.4302 17.445L20.4768 18.3764V27.6895H16.705V17.445L16.5653 16.6069L16.379 15.9084L16.0996 15.303L15.8202 14.7443L15.4477 14.3251L15.0752 13.9526C14.0166 12.915 12.49 12.6752 11.2568 11.5312C8.79585 8.8933 12.4326 5.24955 9.85986 2.31127Z" fill="#0063BE"/>
<path fill-rule="evenodd" clip-rule="evenodd" d="M2.875 2.31127H6.55367L6.73993 2.49753L6.87963 2.68378C7.26535 3.47384 7.58975 4.34616 7.48498 5.24487C7.51991 7.07877 6.57851 9.01436 7.43841 10.7862C8.03989 12.1723 10.1408 12.7132 11.3499 13.5336L12.1881 14.2786L12.514 14.7443L12.7934 15.2565L13.0728 15.8618L13.2125 16.6069L13.3522 17.445L13.3988 18.3764V27.6895H9.67356V18.3764L9.62699 17.445L9.48729 16.6069L9.3476 15.9084C8.76553 14.5533 8.69956 14.5518 7.62468 13.5801C6.42562 12.7505 4.89439 12.3741 3.94601 11.2053C2.82688 9.72063 3.6185 7.49556 3.75975 5.80368V4.49986L3.62005 3.89448L3.52692 3.38228L3.34066 3.00973L3.15439 2.68378L3.0147 2.49753L2.875 2.35784V2.31127Z" fill="#0063BE"/>
<path fill-rule="evenodd" clip-rule="evenodd" d="M16.8445 2.31127H20.5697L20.6163 2.35784L20.7094 2.49753L20.8491 2.68378L21.0354 3.00973L21.2216 3.38228L21.4079 3.89448L21.501 4.49986C21.7874 6.59763 20.4541 8.75747 21.4079 10.7862C22.1064 12.1234 24.0683 12.7303 25.366 13.5336L25.7385 13.9061L26.1576 14.2786L26.5301 14.7443L26.8095 15.2565L27.0889 15.8618L27.2286 16.6069L27.4148 17.445V27.6895H23.643V17.445L23.5033 16.6069L23.3171 15.9084C22.7738 14.3624 22.6714 14.6387 21.6407 13.5801C20.4207 12.7823 18.8879 12.4005 17.9621 11.2053C16.7653 9.70976 17.5911 7.5592 17.7292 5.80368L17.7758 5.24487L17.7292 4.49986L17.6361 3.89448L17.4964 3.38228L17.3101 3.00973L17.1239 2.68378L16.9842 2.49753L16.8445 2.35784V2.31127Z" fill="#0063BE"/>
<path fill-rule="evenodd" clip-rule="evenodd" d="M55.7734 24.3833V26.0596H57.9154L58.1482 25.8734L58.3344 25.7337L58.4276 25.5009L58.4741 25.1749L58.4276 24.8489L58.2879 24.5696L57.9619 24.4299L57.5894 24.3833H55.7734ZM49.2542 22.055L48.4626 24.5696H49.9992L49.2542 22.055ZM55.7734 21.4962V22.8467H57.4963L57.8688 22.7535L58.1016 22.6604L58.2413 22.4275L58.2879 22.1482L58.2413 21.9619L58.1482 21.7756L58.0085 21.6359L57.7757 21.5428L57.4963 21.4962H55.7734ZM61.6872 19.913H63.6895V27.6895H61.6872V19.913ZM53.8642 19.913H57.5894L58.2879 19.9596L58.8932 20.0993L59.4055 20.2855L59.778 20.6115L60.0108 20.9375C60.4291 21.8936 60.2949 22.9514 59.3123 23.452C60.4415 24.0418 60.499 24.5812 60.3833 25.8268L60.1971 26.3391L59.8711 26.8047L59.452 27.1772L58.9398 27.4566L58.2879 27.5963L57.5428 27.6895H53.8642V19.913ZM48.2297 19.913H50.2321L53.0726 27.6895H50.9771L50.5115 26.1528H47.9038L47.4847 27.6895H45.3893L48.2297 19.913ZM37.9854 19.913H39.9877V22.8467L42.3159 19.913H44.6908L42.3625 22.6138L45.0633 27.6895H42.6885L40.919 24.197L39.9877 25.3612V27.6895H37.9854V19.913Z" fill="#0063BE"/>
<path fill-rule="evenodd" clip-rule="evenodd" d="M46.5068 9.90118V11.6707H48.416L48.6954 11.531L48.9282 11.3447L49.0214 11.0653L49.0679 10.7394L49.0214 10.46L48.9282 10.2272L48.6954 10.0409L48.416 9.94775L48.0435 9.90118H46.5068ZM84.1317 8.22485H86.134V13.1608L86.2737 13.5333L86.46 13.9058L86.6928 14.1387L87.0653 14.3249L87.4844 14.3715L87.8569 14.3249L88.1829 14.1387L88.4623 13.9058L88.6486 13.5333L88.7417 13.1608L88.7883 12.6486V8.22485H90.7906C90.574 11.1887 92.016 16.0634 87.4844 16.0944C82.9055 16.1045 84.3459 11.2229 84.1317 8.22485ZM80.8256 8.22485H82.8279V16.0013H80.8256V8.22485ZM72.7232 8.22485H74.4927L77.5194 12.4623V8.22485H79.382V16.0013H77.7988L74.6324 11.531V16.0013H72.7232V8.22485ZM65.8781 8.22485H71.5125V9.94775H67.8338V11.0653H70.3018V12.7417H67.8338V14.3249H71.7919V16.0013H65.8781V8.22485ZM52.1412 8.22485H57.7757V9.94775H54.097V11.0653H56.565V12.7417H54.097V14.3249H58.0551V16.0013H52.1412V8.22485ZM44.5511 8.22485H48.6954L49.3008 8.36454L49.7664 8.55079L50.2321 8.78361L50.558 9.15617L50.8374 9.57524C51.2868 10.9349 51.0019 12.4126 49.5801 13.0211L51.1168 16.0013H48.9282L47.6244 13.3005H46.5068V16.0013H44.5511V8.22485ZM37.9854 8.22485H43.806V9.94775H39.9411V11.1119H42.6885V12.8814H39.9411V16.0013H37.9854V8.22485ZM94.7486 8.08516C96.1169 8.12862 96.6175 8.25047 97.7288 9.06304L96.7044 10.5531L96.1922 10.2272L95.7265 9.99431L95.2143 9.90118L94.6555 9.85462H94.283L94.0036 9.94775L93.8639 10.0875L93.7708 10.2272L93.7242 10.4134L93.7708 10.5531L93.9105 10.7394L94.1433 10.8325C95.0102 11.1181 95.891 11.285 96.751 11.6707C98.1728 12.3746 98.2053 14.5282 97.0769 15.489C95.6598 16.5453 92.7727 16.1666 91.4891 15.0234L92.5601 13.6265C95.4293 15.4844 97.4657 13.4774 94.4227 12.928C90.3536 12.4025 91.2764 7.92063 94.7486 8.08516ZM61.6872 8.08516C63.1742 8.13483 63.4838 8.26289 64.7139 9.06304L63.6429 10.5531L63.1773 10.2272L62.665 9.99431L62.1528 9.90118L61.594 9.85462H61.2215L60.9421 9.94775L60.8024 10.0875L60.7093 10.2272L60.6627 10.4134L60.7093 10.5531L60.849 10.7394L61.1284 10.8325C61.9448 11.1328 62.8536 11.285 63.6895 11.6707C65.0981 12.3537 65.1796 14.5927 63.9689 15.489C62.5828 16.5663 59.6794 16.1348 58.4276 15.0234L59.5452 13.6265L59.9642 13.9058L60.523 14.1387L61.1284 14.3249L61.7337 14.3715H62.1528L62.4788 14.3249L62.665 14.1852C63.3767 13.285 61.9239 13.0933 61.3612 12.928C57.3861 12.4289 58.1234 7.96409 61.6872 8.08516Z" fill="#0063BE"/>
</svg>
