<svg width="139" height="30" viewBox="0 0 139 30" fill="none" xmlns="http://www.w3.org/2000/svg">
<g clip-path="url(#clip0_1455_51187)">
<path d="M63.5253 21.8609H62.6128V20.7734H63.5253V21.8609ZM62.6128 27.7734V22.4859H63.5253V27.7734H62.6128Z" fill="#6D6E70"/>
<path d="M65.3001 25.0891C65.3001 25.6266 65.4751 26.0766 65.8126 26.4391C66.1501 26.8016 66.5751 26.9766 67.0626 26.9766C67.5126 26.9766 67.9126 26.7891 68.2501 26.4266C68.6001 26.0641 68.7626 25.6391 68.7626 25.1516C68.7626 24.6266 68.5876 24.1891 68.2501 23.8141C67.9126 23.4391 67.5001 23.2641 67.0376 23.2641C66.5501 23.2641 66.1501 23.4391 65.8001 23.7891C65.4626 24.1391 65.2876 24.5766 65.2876 25.0766L65.3001 25.0891ZM68.7251 27.7641V27.1141C68.4876 27.3641 68.2251 27.5516 67.9376 27.6891C67.6501 27.8141 67.3376 27.8891 67.0126 27.8891C66.2501 27.8891 65.6126 27.6266 65.1126 27.0891C64.6126 26.5641 64.3501 25.8891 64.3501 25.1016C64.3501 24.7266 64.4126 24.3766 64.5376 24.0391C64.6626 23.7016 64.8501 23.4141 65.0751 23.1641C65.3251 22.8891 65.6126 22.6766 65.9126 22.5516C66.2126 22.4141 66.5626 22.3516 66.9501 22.3516C67.3001 22.3516 67.6126 22.4141 67.9126 22.5516C68.2126 22.6766 68.4751 22.8766 68.7251 23.1391V20.7891H69.6501V27.7891H68.7251V27.7641Z" fill="#6D6E70"/>
<path d="M74.6754 24.6109C74.5629 24.1734 74.3629 23.8359 74.0879 23.5984C73.8129 23.3609 73.4754 23.2359 73.0754 23.2359C72.6754 23.2359 72.3254 23.3609 72.0379 23.5984C71.7504 23.8484 71.5379 24.1734 71.4254 24.5984H74.6754V24.6109ZM71.4004 25.4734C71.4754 25.9109 71.6754 26.2734 71.9754 26.5484C72.2879 26.8234 72.6504 26.9609 73.0629 26.9609C73.3629 26.9609 73.6379 26.8859 73.8879 26.7359C74.1379 26.5859 74.3379 26.3734 74.4754 26.0984H75.5129C75.2754 26.6859 74.9504 27.1359 74.5254 27.4484C74.1004 27.7609 73.6129 27.9109 73.0504 27.9109C72.6754 27.9109 72.3254 27.8359 72.0129 27.6984C71.7004 27.5609 71.4254 27.3484 71.1629 27.0734C70.9254 26.8109 70.7379 26.5109 70.6004 26.1734C70.4629 25.8234 70.4004 25.4734 70.4004 25.1234C70.4004 24.7484 70.4629 24.3984 70.5879 24.0859C70.7129 23.7609 70.8879 23.4609 71.1254 23.1984C71.3754 22.9109 71.6629 22.6984 71.9879 22.5484C72.3004 22.3984 72.6504 22.3359 73.0254 22.3359C73.4754 22.3359 73.8879 22.4484 74.2754 22.6609C74.6629 22.8734 74.9754 23.1734 75.2254 23.5609C75.3754 23.7984 75.4879 24.0609 75.5504 24.3484C75.6254 24.6359 75.6504 24.9609 75.6504 25.3359V25.4859H71.3629L71.4004 25.4734Z" fill="#6D6E70"/>
<path d="M77.1751 25.0891C77.1751 25.6266 77.3501 26.0766 77.6876 26.4391C78.0251 26.8016 78.4501 26.9766 78.9376 26.9766C79.3876 26.9766 79.7876 26.7891 80.1251 26.4266C80.4751 26.0641 80.6376 25.6391 80.6376 25.1516C80.6376 24.6266 80.4751 24.1891 80.1251 23.8141C79.7876 23.4391 79.3751 23.2641 78.9126 23.2641C78.4251 23.2641 78.0251 23.4391 77.6751 23.7891C77.3376 24.1391 77.1626 24.5766 77.1626 25.0766L77.1751 25.0891ZM80.6001 27.7641V27.1141C80.3626 27.3641 80.1001 27.5516 79.8126 27.6891C79.5251 27.8141 79.2126 27.8891 78.8876 27.8891C78.1251 27.8891 77.4876 27.6266 76.9876 27.0891C76.4876 26.5641 76.2251 25.8891 76.2251 25.1016C76.2251 24.7266 76.2876 24.3766 76.4126 24.0391C76.5376 23.7016 76.7126 23.4141 76.9501 23.1641C77.2001 22.8891 77.4876 22.6766 77.7876 22.5516C78.0876 22.4141 78.4376 22.3516 78.8251 22.3516C79.1751 22.3516 79.4876 22.4141 79.7876 22.5516C80.0751 22.6766 80.3501 22.8766 80.5876 23.1391V22.5016H81.5126V27.7891H80.5876L80.6001 27.7641Z" fill="#6D6E70"/>
<path d="M82.2378 26.0508H83.1003C83.1003 26.3258 83.1753 26.5633 83.3253 26.7383C83.4753 26.9258 83.6628 27.0133 83.8878 27.0133C84.1003 27.0133 84.2753 26.9383 84.4128 26.8133C84.5503 26.6758 84.6128 26.5008 84.6128 26.2883C84.6128 26.1008 84.5628 25.9383 84.4628 25.8133C84.3628 25.6883 84.2128 25.5758 83.9878 25.4883C83.9128 25.4508 83.8128 25.4133 83.6753 25.3633C83.3128 25.2258 83.0878 25.1133 82.9878 25.0258C82.8003 24.8758 82.6753 24.7008 82.5878 24.5133C82.5003 24.3258 82.4628 24.1008 82.4628 23.8508C82.4628 23.4258 82.6003 23.0633 82.9003 22.7508C83.1878 22.4508 83.5378 22.3008 83.9628 22.3008C84.4003 22.3008 84.7378 22.4258 85.0003 22.7008C85.2628 22.9633 85.4003 23.3383 85.4253 23.8133H84.5378C84.5253 23.6133 84.4628 23.4633 84.3503 23.3508C84.2378 23.2383 84.1003 23.1883 83.9128 23.1883C83.7503 23.1883 83.6128 23.2508 83.5003 23.3633C83.3878 23.4758 83.3378 23.6258 83.3378 23.8008C83.3378 24.1008 83.5878 24.3383 84.0753 24.5258C84.2128 24.5758 84.3253 24.6258 84.4003 24.6508C84.7878 24.8133 85.0628 25.0133 85.2378 25.2633C85.4003 25.5008 85.4878 25.8258 85.4878 26.2383C85.4878 26.7133 85.3378 27.1008 85.0253 27.4258C84.7128 27.7383 84.3253 27.9008 83.8628 27.9008C83.3878 27.9008 83.0128 27.7383 82.7128 27.4008C82.4253 27.0758 82.2628 26.6133 82.2378 26.0383V26.0508Z" fill="#6D6E70"/>
<path d="M91.6878 23.6625L91.9503 23.1125H92.5628L91.8878 25.875C91.8753 25.925 91.8628 25.975 91.8628 26.025C91.8503 26.075 91.8503 26.1125 91.8503 26.1625C91.8503 26.3125 91.8878 26.425 91.9753 26.5C92.0503 26.575 92.1753 26.6125 92.3253 26.6125C92.4753 26.6125 92.6253 26.575 92.8003 26.4875C92.9628 26.4 93.1378 26.2875 93.2878 26.125C93.5378 25.8875 93.7253 25.5875 93.8628 25.225C94.0003 24.875 94.0753 24.5 94.0753 24.1C94.0753 23.275 93.7878 22.6 93.1878 22.075C92.6003 21.5625 91.8253 21.3 90.8753 21.3C90.4628 21.3 90.0878 21.35 89.7378 21.4375C89.3878 21.525 89.0628 21.6625 88.7628 21.85C88.1753 22.2125 87.7128 22.7 87.3878 23.2875C87.0628 23.8875 86.9003 24.5375 86.9003 25.2625C86.9003 25.825 87.0003 26.325 87.1878 26.75C87.3753 27.175 87.6753 27.5375 88.0753 27.8625C88.3878 28.1125 88.7503 28.3 89.1753 28.4375C89.6003 28.575 90.0378 28.6375 90.5128 28.6375C91.0378 28.6375 91.5378 28.5625 92.0378 28.4C92.5253 28.2375 92.9878 28.0125 93.3878 27.725L93.6378 28.125C93.1753 28.475 92.7003 28.75 92.1753 28.925C91.6628 29.1 91.1253 29.2 90.5628 29.2C89.9753 29.2 89.4378 29.125 88.9503 28.975C88.4628 28.825 88.0253 28.6 87.6503 28.3C87.1753 27.925 86.8253 27.4875 86.5878 26.9875C86.3503 26.4875 86.2378 25.925 86.2378 25.2875C86.2378 24.7625 86.3128 24.2625 86.4753 23.7875C86.6378 23.3125 86.8753 22.875 87.1753 22.4875C87.6253 21.9125 88.1753 21.4875 88.8003 21.1875C89.4378 20.8875 90.1378 20.75 90.9128 20.75C91.4128 20.75 91.9003 20.825 92.3503 20.9625C92.8003 21.1125 93.2003 21.3125 93.5253 21.575C93.9253 21.9 94.2378 22.2625 94.4378 22.6875C94.6503 23.1125 94.7503 23.5625 94.7503 24.05C94.7503 24.6125 94.6503 25.1125 94.4503 25.5625C94.2503 26.0125 93.9753 26.3875 93.6003 26.7C93.3878 26.875 93.1628 27 92.9128 27.1C92.6628 27.1875 92.4003 27.2375 92.1378 27.2375C91.8378 27.2375 91.6003 27.175 91.4503 27.05C91.3003 26.925 91.2128 26.7375 91.2128 26.4875V26.4C91.0378 26.6875 90.8503 26.9 90.6128 27.0375C90.3878 27.175 90.1253 27.2375 89.8128 27.2375C89.3378 27.2375 88.9753 27.1 88.7253 26.825C88.4753 26.55 88.3503 26.1625 88.3503 25.6375C88.3503 24.8875 88.5628 24.25 88.9878 23.7375C89.4128 23.225 89.9378 22.975 90.5628 22.975C90.8253 22.975 91.0503 23.0375 91.2378 23.15C91.4253 23.275 91.5753 23.45 91.6878 23.6875V23.6625ZM91.2503 25.4875L91.5253 24.35C91.4753 24.0625 91.3628 23.85 91.2128 23.7C91.0503 23.55 90.8503 23.4625 90.6128 23.4625C90.1878 23.4625 89.8253 23.675 89.5378 24.0875C89.2503 24.5 89.1003 25.0125 89.1003 25.625C89.1003 25.9625 89.1753 26.225 89.3253 26.4C89.4753 26.5875 89.6878 26.675 89.9628 26.675C90.2628 26.675 90.5378 26.5625 90.7753 26.3375C91.0128 26.1125 91.1753 25.825 91.2628 25.475L91.2503 25.4875Z" fill="#6D6E70"/>
<path d="M98.5879 24.1891L97.5504 27.7766H97.0379L95.2754 22.4766H96.2504L97.3004 25.9766L98.3254 22.4766H98.8879L99.9129 25.9766L100.963 22.4766H101.938L100.163 27.7766H99.6504L98.5879 24.1891Z" fill="#6D6E70"/>
<path d="M103.175 25.125C103.175 25.65 103.338 26.1 103.663 26.45C103.988 26.8 104.388 26.975 104.863 26.975C105.338 26.975 105.738 26.8 106.05 26.4375C106.375 26.0875 106.525 25.6375 106.525 25.1125C106.525 24.575 106.363 24.1375 106.05 23.7875C105.725 23.4375 105.325 23.2625 104.85 23.2625C104.375 23.2625 103.975 23.4375 103.65 23.8C103.325 24.15 103.163 24.6 103.163 25.125H103.175ZM102.225 25.1375C102.225 24.7625 102.288 24.4125 102.413 24.0875C102.538 23.7625 102.713 23.475 102.95 23.2125C103.213 22.925 103.5 22.7125 103.813 22.55C104.138 22.4 104.463 22.3125 104.813 22.3125C105.188 22.3125 105.525 22.375 105.838 22.525C106.15 22.6625 106.438 22.8625 106.7 23.1375C106.95 23.4 107.138 23.7 107.275 24.0375C107.413 24.375 107.475 24.7125 107.475 25.075C107.475 25.4375 107.413 25.7875 107.288 26.1375C107.163 26.475 106.988 26.775 106.763 27.0375C106.5 27.3375 106.213 27.5625 105.888 27.7125C105.563 27.8625 105.225 27.9375 104.863 27.9375C104.488 27.9375 104.15 27.8625 103.825 27.725C103.513 27.5875 103.225 27.375 102.975 27.1C102.738 26.8375 102.55 26.5375 102.413 26.1875C102.275 25.85 102.213 25.4875 102.213 25.1375H102.225Z" fill="#6D6E70"/>
<path d="M109.188 27.7734H108.263V22.4859H109.125V23.0984C109.275 22.8609 109.45 22.6859 109.65 22.5734C109.85 22.4609 110.075 22.3984 110.338 22.3984V23.3984C109.925 23.4359 109.638 23.5609 109.45 23.7734C109.275 23.9984 109.188 24.3484 109.188 24.8359V27.7859V27.7734Z" fill="#6D6E70"/>
<path d="M111 27.7742V20.7617H111.912V24.9367L113.725 22.4742H114.8L112.925 24.9867L115.137 27.7742H113.962L111.912 25.0867V27.7742H111Z" fill="#6D6E70"/>
<path d="M46.1253 2.66094C42.5628 2.66094 40.1628 4.51094 40.1628 7.46094C40.1628 13.2109 48.3628 11.4234 48.3628 14.4859C48.3628 15.4859 47.5003 16.0359 46.0753 16.0359C44.4503 16.0359 42.2003 15.0859 40.6253 13.5984L39.2378 16.5859C40.9753 18.1359 43.5003 19.1609 46.0378 19.1609C49.4503 19.1609 52.0628 17.4484 52.0628 14.2609C52.0878 8.41094 43.8878 10.0859 43.8878 7.09844C43.8878 6.22344 44.6753 5.77344 45.8503 5.77344C47.0753 5.77344 49.0128 6.42344 50.6378 7.44844L51.9753 4.41094C50.4378 3.34844 48.2753 2.64844 46.1253 2.64844V2.66094Z" fill="white"/>
<path d="M63.9498 19.0617H67.8873L64.6123 13.6992C66.4873 12.7742 67.4873 10.9617 67.4873 8.46172C67.4873 4.86172 65.1998 2.82422 61.1748 2.82422H54.4873V19.0617H57.9623V14.4242H61.4998L63.9373 19.0617H63.9498ZM57.9623 11.3617V5.86172H61.1748C63.0873 5.86172 64.1873 6.76172 64.1873 8.57422C64.1873 10.4242 63.0873 11.3617 61.1748 11.3617H57.9623Z" fill="white"/>
<path d="M87.1373 19.0617V2.82422H83.2623L78.7998 12.7492L74.3123 2.82422H70.4248V19.0617H73.5623V8.11172L77.6498 17.4117H79.9248L84.0123 8.11172V19.0617H87.1373Z" fill="white"/>
<path d="M89.0498 2.82422V5.27422H93.8998V19.0617H96.4998V5.27422H101.387V2.82422H89.0498Z" fill="#0CA1B6"/>
<path d="M106.725 6.62187C103.25 6.64687 100.812 9.17187 100.812 12.9094C100.812 16.6219 103.187 19.1469 106.8 19.1469C108.825 19.1469 110.487 18.3844 111.637 17.0594L110.3 15.5469C109.437 16.4719 108.275 16.9844 107 16.9844C105.15 16.9844 103.762 15.7969 103.375 13.8969H112.212C112.525 9.44687 110.85 6.60938 106.737 6.60938L106.725 6.62187ZM103.312 11.9594C103.575 9.98437 104.9 8.75937 106.737 8.75937C108.65 8.75937 109.9 9.95937 109.987 11.9594H103.3H103.312Z" fill="#0CA1B6"/>
<path d="M123.087 10.3617L124.475 8.64922C123.4 7.34922 121.75 6.63672 119.637 6.63672C116.162 6.63672 113.75 9.18672 113.75 12.9242C113.75 16.6367 116.162 19.1617 119.637 19.1617C121.862 19.1617 123.55 18.3242 124.612 16.8617L123.2 15.3742C122.412 16.3492 121.225 16.8617 119.75 16.8617C117.725 16.8617 116.275 15.2617 116.275 12.9242C116.275 10.5867 117.725 8.97422 119.75 8.97422C121.162 8.94922 122.275 9.48672 123.087 10.3617Z" fill="#0CA1B6"/>
<path d="M134.213 6.62344C132.213 6.62344 130.713 7.38594 129.875 9.12344V1.83594H127.35V19.0484H129.875V12.9734C129.875 10.7984 131.125 9.14844 133.213 9.12344C134.975 9.12344 136.025 10.2609 136.025 12.1109V19.0484H138.55V11.3734C138.55 8.42344 136.925 6.62344 134.2 6.62344H134.213Z" fill="#0CA1B6"/>
<path fill-rule="evenodd" clip-rule="evenodd" d="M17.125 24.9508L15.325 26.8508L13.4125 24.8633L8.75 29.7508H21.7125L17.125 24.9508Z" fill="white"/>
<path fill-rule="evenodd" clip-rule="evenodd" d="M14.5624 0.211719C9.6749 5.36172 5.1124 10.1742 0.124902 15.3617L6.9374 22.5242L0.0874023 29.6617L6.7249 29.7867L13.8874 22.2742L7.5124 15.6117L14.1374 8.64922L14.3999 8.37422L14.5624 8.19922V0.199219V0.211719Z" fill="white"/>
<path fill-rule="evenodd" clip-rule="evenodd" d="M17.525 13.0859C16.875 12.4234 16.0875 12.0859 15.15 12.0859C14.2125 12.0859 13.4125 12.4234 12.75 13.0859C12.1 13.7859 11.7875 14.6234 11.7875 15.6109C11.775 16.5984 12.1 17.4234 12.75 18.0984C13.4125 18.7984 14.2125 19.1359 15.15 19.1359C16.0875 19.1359 16.8875 18.7984 17.525 18.0984C18.175 17.4234 18.5125 16.5984 18.5 15.6109C18.5125 14.6234 18.175 13.7859 17.525 13.0859Z" fill="#EF7F1A"/>
<path fill-rule="evenodd" clip-rule="evenodd" d="M16.2754 0.211719C21.1629 5.36172 25.7254 10.1742 30.7129 15.3617L23.9004 22.5242L30.7504 29.6617L24.1129 29.7867L16.9504 22.2742L23.3254 15.6117L16.7004 8.64922L16.4379 8.37422L16.2754 8.19922V0.199219V0.211719Z" fill="white"/>
<path fill-rule="evenodd" clip-rule="evenodd" d="M115.962 25.4883H138.65V25.1133H115.962V25.4883Z" fill="#6D6E70"/>
<path fill-rule="evenodd" clip-rule="evenodd" d="M39.3003 25.4883H61.0753V25.1133H39.3003V25.4883Z" fill="#6D6E70"/>
</g>
<defs>
<clipPath id="clip0_1455_51187">
<rect width="138.75" height="30" fill="white"/>
</clipPath>
</defs>
</svg>
