<svg width="140" height="30" viewBox="0 0 140 30" fill="none" xmlns="http://www.w3.org/2000/svg">
<g clip-path="url(#clip0_1439_55530)">
<path d="M64.1503 21.8624H63.2378V20.7749H64.1503V21.8624ZM63.2378 27.7749V22.4874H64.1503V27.7749H63.2378Z" fill="#6D6E70"/>
<path d="M65.9251 25.0871C65.9251 25.6246 66.1001 26.0746 66.4376 26.4371C66.7751 26.7996 67.2001 26.9746 67.6876 26.9746C68.1376 26.9746 68.5376 26.7871 68.8751 26.4246C69.2251 26.0621 69.3876 25.6371 69.3876 25.1496C69.3876 24.6246 69.2126 24.1871 68.8751 23.8121C68.5376 23.4371 68.1251 23.2621 67.6626 23.2621C67.1751 23.2621 66.7751 23.4371 66.4251 23.7871C66.0876 24.1371 65.9126 24.5746 65.9126 25.0746L65.9251 25.0871ZM69.3501 27.7621V27.1121C69.1126 27.3621 68.8501 27.5496 68.5626 27.6871C68.2751 27.8121 67.9626 27.8871 67.6376 27.8871C66.8751 27.8871 66.2376 27.6246 65.7376 27.0871C65.2376 26.5621 64.9751 25.8871 64.9751 25.0996C64.9751 24.7246 65.0376 24.3746 65.1626 24.0371C65.2876 23.6996 65.4751 23.4121 65.7001 23.1621C65.9501 22.8871 66.2376 22.6746 66.5376 22.5496C66.8376 22.4121 67.1876 22.3496 67.5751 22.3496C67.9251 22.3496 68.2376 22.4121 68.5376 22.5496C68.8376 22.6746 69.1001 22.8746 69.3501 23.1371V20.7871H70.2751V27.7871H69.3501V27.7621Z" fill="#6D6E70"/>
<path d="M75.3004 24.6119C75.1879 24.1744 74.9879 23.8369 74.7129 23.5994C74.4379 23.3619 74.1004 23.2369 73.7004 23.2369C73.3004 23.2369 72.9504 23.3619 72.6629 23.5994C72.3754 23.8494 72.1629 24.1744 72.0504 24.5994H75.3004V24.6119ZM72.0254 25.4744C72.1004 25.9119 72.3004 26.2744 72.6004 26.5494C72.9129 26.8244 73.2754 26.9619 73.6879 26.9619C73.9879 26.9619 74.2629 26.8869 74.5129 26.7369C74.7629 26.5869 74.9629 26.3744 75.1004 26.0994H76.1379C75.9004 26.6869 75.5754 27.1369 75.1504 27.4494C74.7254 27.7619 74.2379 27.9119 73.6754 27.9119C73.3004 27.9119 72.9504 27.8369 72.6379 27.6994C72.3254 27.5619 72.0504 27.3494 71.7879 27.0744C71.5504 26.8119 71.3629 26.5119 71.2254 26.1744C71.0879 25.8244 71.0254 25.4744 71.0254 25.1244C71.0254 24.7494 71.0879 24.3994 71.2129 24.0869C71.3379 23.7619 71.5129 23.4619 71.7504 23.1994C72.0004 22.9119 72.2879 22.6994 72.6129 22.5494C72.9254 22.3994 73.2754 22.3369 73.6504 22.3369C74.1004 22.3369 74.5129 22.4494 74.9004 22.6619C75.2879 22.8744 75.6004 23.1744 75.8504 23.5619C76.0004 23.7994 76.1129 24.0619 76.1754 24.3494C76.2504 24.6369 76.2754 24.9619 76.2754 25.3369V25.4869H71.9879L72.0254 25.4744Z" fill="#6D6E70"/>
<path d="M77.8001 25.0871C77.8001 25.6246 77.9751 26.0746 78.3126 26.4371C78.6501 26.7996 79.0751 26.9746 79.5626 26.9746C80.0126 26.9746 80.4126 26.7871 80.7501 26.4246C81.1001 26.0621 81.2626 25.6371 81.2626 25.1496C81.2626 24.6246 81.1001 24.1871 80.7501 23.8121C80.4126 23.4371 80.0001 23.2621 79.5376 23.2621C79.0501 23.2621 78.6501 23.4371 78.3001 23.7871C77.9626 24.1371 77.7876 24.5746 77.7876 25.0746L77.8001 25.0871ZM81.2251 27.7621V27.1121C80.9876 27.3621 80.7251 27.5496 80.4376 27.6871C80.1501 27.8121 79.8376 27.8871 79.5126 27.8871C78.7501 27.8871 78.1126 27.6246 77.6126 27.0871C77.1126 26.5621 76.8501 25.8871 76.8501 25.0996C76.8501 24.7246 76.9126 24.3746 77.0376 24.0371C77.1626 23.6996 77.3376 23.4121 77.5751 23.1621C77.8251 22.8871 78.1126 22.6746 78.4126 22.5496C78.7126 22.4121 79.0626 22.3496 79.4501 22.3496C79.8001 22.3496 80.1126 22.4121 80.4126 22.5496C80.7001 22.6746 80.9751 22.8746 81.2126 23.1371V22.4996H82.1376V27.7871H81.2126L81.2251 27.7621Z" fill="#6D6E70"/>
<path d="M82.8628 26.0498H83.7253C83.7253 26.3248 83.8003 26.5623 83.9503 26.7373C84.1003 26.9248 84.2878 27.0123 84.5128 27.0123C84.7253 27.0123 84.9003 26.9373 85.0378 26.8123C85.1753 26.6748 85.2378 26.4998 85.2378 26.2873C85.2378 26.0998 85.1878 25.9373 85.0878 25.8123C84.9878 25.6873 84.8378 25.5748 84.6128 25.4873C84.5378 25.4498 84.4378 25.4123 84.3003 25.3623C83.9378 25.2248 83.7128 25.1123 83.6128 25.0248C83.4253 24.8748 83.3003 24.6998 83.2128 24.5123C83.1253 24.3248 83.0878 24.0998 83.0878 23.8498C83.0878 23.4248 83.2253 23.0623 83.5253 22.7498C83.8128 22.4498 84.1628 22.2998 84.5878 22.2998C85.0253 22.2998 85.3628 22.4248 85.6253 22.6998C85.8878 22.9623 86.0253 23.3373 86.0503 23.8123H85.1628C85.1503 23.6123 85.0878 23.4623 84.9753 23.3498C84.8628 23.2373 84.7253 23.1873 84.5378 23.1873C84.3753 23.1873 84.2378 23.2498 84.1253 23.3623C84.0128 23.4748 83.9628 23.6248 83.9628 23.7998C83.9628 24.0998 84.2128 24.3373 84.7003 24.5248C84.8378 24.5748 84.9503 24.6248 85.0253 24.6498C85.4128 24.8123 85.6878 25.0123 85.8628 25.2623C86.0253 25.4998 86.1128 25.8248 86.1128 26.2373C86.1128 26.7123 85.9628 27.0998 85.6503 27.4248C85.3378 27.7373 84.9503 27.8998 84.4878 27.8998C84.0128 27.8998 83.6378 27.7373 83.3378 27.3998C83.0503 27.0748 82.8878 26.6123 82.8628 26.0373V26.0498Z" fill="#6D6E70"/>
<path d="M92.3128 23.6625L92.5753 23.1125H93.1878L92.5128 25.875C92.5003 25.925 92.4878 25.975 92.4878 26.025C92.4753 26.075 92.4753 26.1125 92.4753 26.1625C92.4753 26.3125 92.5128 26.425 92.6003 26.5C92.6753 26.575 92.8003 26.6125 92.9503 26.6125C93.1003 26.6125 93.2503 26.575 93.4253 26.4875C93.5878 26.4 93.7628 26.2875 93.9128 26.125C94.1628 25.8875 94.3503 25.5875 94.4878 25.225C94.6253 24.875 94.7003 24.5 94.7003 24.1C94.7003 23.275 94.4128 22.6 93.8128 22.075C93.2253 21.5625 92.4503 21.3 91.5003 21.3C91.0878 21.3 90.7128 21.35 90.3628 21.4375C90.0128 21.525 89.6878 21.6625 89.3878 21.85C88.8003 22.2125 88.3378 22.7 88.0128 23.2875C87.6878 23.8875 87.5253 24.5375 87.5253 25.2625C87.5253 25.825 87.6253 26.325 87.8128 26.75C88.0003 27.175 88.3003 27.5375 88.7003 27.8625C89.0128 28.1125 89.3753 28.3 89.8003 28.4375C90.2253 28.575 90.6628 28.6375 91.1378 28.6375C91.6628 28.6375 92.1628 28.5625 92.6628 28.4C93.1503 28.2375 93.6128 28.0125 94.0128 27.725L94.2628 28.125C93.8003 28.475 93.3253 28.75 92.8003 28.925C92.2878 29.1 91.7503 29.2 91.1878 29.2C90.6003 29.2 90.0628 29.125 89.5753 28.975C89.0878 28.825 88.6503 28.6 88.2753 28.3C87.8003 27.925 87.4503 27.4875 87.2128 26.9875C86.9753 26.4875 86.8628 25.925 86.8628 25.2875C86.8628 24.7625 86.9378 24.2625 87.1003 23.7875C87.2628 23.3125 87.5003 22.875 87.8003 22.4875C88.2503 21.9125 88.8003 21.4875 89.4253 21.1875C90.0628 20.8875 90.7628 20.75 91.5378 20.75C92.0378 20.75 92.5253 20.825 92.9753 20.9625C93.4253 21.1125 93.8253 21.3125 94.1503 21.575C94.5503 21.9 94.8628 22.2625 95.0628 22.6875C95.2753 23.1125 95.3753 23.5625 95.3753 24.05C95.3753 24.6125 95.2753 25.1125 95.0753 25.5625C94.8753 26.0125 94.6003 26.3875 94.2253 26.7C94.0128 26.875 93.7878 27 93.5378 27.1C93.2878 27.1875 93.0253 27.2375 92.7628 27.2375C92.4628 27.2375 92.2253 27.175 92.0753 27.05C91.9253 26.925 91.8378 26.7375 91.8378 26.4875V26.4C91.6628 26.6875 91.4753 26.9 91.2378 27.0375C91.0128 27.175 90.7503 27.2375 90.4378 27.2375C89.9628 27.2375 89.6003 27.1 89.3503 26.825C89.1003 26.55 88.9753 26.1625 88.9753 25.6375C88.9753 24.8875 89.1878 24.25 89.6128 23.7375C90.0378 23.225 90.5628 22.975 91.1878 22.975C91.4503 22.975 91.6753 23.0375 91.8628 23.15C92.0503 23.275 92.2003 23.45 92.3128 23.6875V23.6625ZM91.8753 25.4875L92.1503 24.35C92.1003 24.0625 91.9878 23.85 91.8378 23.7C91.6753 23.55 91.4753 23.4625 91.2378 23.4625C90.8128 23.4625 90.4503 23.675 90.1628 24.0875C89.8753 24.5 89.7253 25.0125 89.7253 25.625C89.7253 25.9625 89.8003 26.225 89.9503 26.4C90.1003 26.5875 90.3128 26.675 90.5878 26.675C90.8878 26.675 91.1628 26.5625 91.4003 26.3375C91.6378 26.1125 91.8003 25.825 91.8878 25.475L91.8753 25.4875Z" fill="#6D6E70"/>
<path d="M99.2129 24.1871L98.1754 27.7746H97.6629L95.9004 22.4746H96.8754L97.9254 25.9746L98.9504 22.4746H99.5129L100.538 25.9746L101.588 22.4746H102.563L100.788 27.7746H100.275L99.2129 24.1871Z" fill="#6D6E70"/>
<path d="M103.8 25.1245C103.8 25.6495 103.963 26.0995 104.288 26.4495C104.613 26.7995 105.013 26.9745 105.488 26.9745C105.963 26.9745 106.363 26.7995 106.675 26.437C107 26.087 107.15 25.637 107.15 25.112C107.15 24.5745 106.988 24.137 106.675 23.787C106.35 23.437 105.95 23.262 105.475 23.262C105 23.262 104.6 23.437 104.275 23.7995C103.95 24.1495 103.788 24.5995 103.788 25.1245H103.8ZM102.85 25.137C102.85 24.762 102.913 24.412 103.038 24.087C103.163 23.762 103.338 23.4745 103.575 23.212C103.838 22.9245 104.125 22.712 104.438 22.5495C104.763 22.3995 105.088 22.312 105.438 22.312C105.813 22.312 106.15 22.3745 106.463 22.5245C106.775 22.662 107.063 22.862 107.325 23.137C107.575 23.3995 107.763 23.6995 107.9 24.037C108.038 24.3745 108.1 24.712 108.1 25.0745C108.1 25.437 108.038 25.787 107.913 26.137C107.788 26.4745 107.613 26.7745 107.388 27.037C107.125 27.337 106.838 27.562 106.513 27.712C106.188 27.862 105.85 27.937 105.488 27.937C105.113 27.937 104.775 27.862 104.45 27.7245C104.138 27.587 103.85 27.3745 103.6 27.0995C103.363 26.837 103.175 26.537 103.038 26.187C102.9 25.8495 102.838 25.487 102.838 25.137H102.85Z" fill="#6D6E70"/>
<path d="M109.813 27.7744H108.888V22.4869H109.75V23.0994C109.9 22.8619 110.075 22.6869 110.275 22.5744C110.475 22.4619 110.7 22.3994 110.963 22.3994V23.3994C110.55 23.4369 110.263 23.5619 110.075 23.7744C109.9 23.9994 109.813 24.3494 109.813 24.8369V27.7869V27.7744Z" fill="#6D6E70"/>
<path d="M111.625 27.7747V20.7622H112.537V24.9372L114.35 22.4747H115.425L113.55 24.9872L115.762 27.7747H114.587L112.537 25.0872V27.7747H111.625Z" fill="#6D6E70"/>
<path d="M46.7503 2.6624C43.1878 2.6624 40.7878 4.5124 40.7878 7.4624C40.7878 13.2124 48.9878 11.4249 48.9878 14.4874C48.9878 15.4874 48.1253 16.0374 46.7003 16.0374C45.0753 16.0374 42.8253 15.0874 41.2503 13.5999L39.8628 16.5874C41.6003 18.1374 44.1253 19.1624 46.6628 19.1624C50.0753 19.1624 52.6878 17.4499 52.6878 14.2624C52.7128 8.4124 44.5128 10.0874 44.5128 7.0999C44.5128 6.2249 45.3003 5.7749 46.4753 5.7749C47.7003 5.7749 49.6378 6.4249 51.2628 7.4499L52.6003 4.4124C51.0628 3.3499 48.9003 2.6499 46.7503 2.6499V2.6624Z" fill="#172455"/>
<path d="M64.5748 19.0627H68.5123L65.2373 13.7002C67.1123 12.7752 68.1123 10.9627 68.1123 8.4627C68.1123 4.8627 65.8248 2.8252 61.7998 2.8252H55.1123V19.0627H58.5873V14.4252H62.1248L64.5623 19.0627H64.5748ZM58.5873 11.3627V5.8627H61.7998C63.7123 5.8627 64.8123 6.7627 64.8123 8.57519C64.8123 10.4252 63.7123 11.3627 61.7998 11.3627H58.5873Z" fill="#172455"/>
<path d="M87.7623 19.0627V2.8252H83.8873L79.4248 12.7502L74.9373 2.8252H71.0498V19.0627H74.1873V8.1127L78.2748 17.4127H80.5498L84.6373 8.1127V19.0627H87.7623Z" fill="#172455"/>
<path d="M89.6748 2.8252V5.2752H94.5248V19.0627H97.1248V5.2752H102.012V2.8252H89.6748Z" fill="#0CA1B6"/>
<path d="M107.35 6.6248C103.875 6.6498 101.438 9.1748 101.438 12.9123C101.438 16.6248 103.812 19.1498 107.425 19.1498C109.45 19.1498 111.112 18.3873 112.262 17.0623L110.925 15.5498C110.062 16.4748 108.9 16.9873 107.625 16.9873C105.775 16.9873 104.387 15.7998 104 13.8998H112.837C113.15 9.4498 111.475 6.6123 107.362 6.6123L107.35 6.6248ZM103.937 11.9623C104.2 9.9873 105.525 8.7623 107.362 8.7623C109.275 8.7623 110.525 9.9623 110.612 11.9623H103.925H103.937Z" fill="#0CA1B6"/>
<path d="M123.712 10.3622L125.1 8.64971C124.025 7.34971 122.375 6.63721 120.262 6.63721C116.787 6.63721 114.375 9.18721 114.375 12.9247C114.375 16.6372 116.787 19.1622 120.262 19.1622C122.487 19.1622 124.175 18.3247 125.237 16.8622L123.825 15.3747C123.037 16.3497 121.85 16.8622 120.375 16.8622C118.35 16.8622 116.9 15.2622 116.9 12.9247C116.9 10.5872 118.35 8.97471 120.375 8.97471C121.787 8.94971 122.9 9.48721 123.712 10.3622Z" fill="#0CA1B6"/>
<path d="M134.838 6.6249C132.838 6.6249 131.338 7.3874 130.5 9.1249V1.8374H127.975V19.0499H130.5V12.9749C130.5 10.7999 131.75 9.1499 133.838 9.1249C135.6 9.1249 136.65 10.2624 136.65 12.1124V19.0499H139.175V11.3749C139.175 8.4249 137.55 6.6249 134.825 6.6249H134.838Z" fill="#0CA1B6"/>
<path fill-rule="evenodd" clip-rule="evenodd" d="M17.75 24.9498L15.95 26.8498L14.0375 24.8623L9.375 29.7498H22.3375L17.75 24.9498Z" fill="#172455"/>
<path fill-rule="evenodd" clip-rule="evenodd" d="M15.1874 0.212695C10.2999 5.3627 5.7374 10.1752 0.749902 15.3627L7.5624 22.5252L0.712402 29.6627L7.3499 29.7877L14.5124 22.2752L8.1374 15.6127L14.7624 8.6502L15.0249 8.3752L15.1874 8.2002V0.200195V0.212695Z" fill="#172455"/>
<path fill-rule="evenodd" clip-rule="evenodd" d="M18.15 13.0869C17.5 12.4244 16.7125 12.0869 15.775 12.0869C14.8375 12.0869 14.0375 12.4244 13.375 13.0869C12.725 13.7869 12.4125 14.6244 12.4125 15.6119C12.4 16.5994 12.725 17.4244 13.375 18.0994C14.0375 18.7994 14.8375 19.1369 15.775 19.1369C16.7125 19.1369 17.5125 18.7994 18.15 18.0994C18.8 17.4244 19.1375 16.5994 19.125 15.6119C19.1375 14.6244 18.8 13.7869 18.15 13.0869Z" fill="#EF7F1A"/>
<path fill-rule="evenodd" clip-rule="evenodd" d="M16.9004 0.212695C21.7879 5.3627 26.3504 10.1752 31.3379 15.3627L24.5254 22.5252L31.3754 29.6627L24.7379 29.7877L17.5754 22.2752L23.9504 15.6127L17.3254 8.6502L17.0629 8.3752L16.9004 8.2002V0.200195V0.212695Z" fill="#172455"/>
<path fill-rule="evenodd" clip-rule="evenodd" d="M116.587 25.4873H139.275V25.1123H116.587V25.4873Z" fill="#6D6E70"/>
<path fill-rule="evenodd" clip-rule="evenodd" d="M39.9253 25.4873H61.7003V25.1123H39.9253V25.4873Z" fill="#6D6E70"/>
</g>
<defs>
<clipPath id="clip0_1439_55530">
<rect width="138.75" height="30" fill="white" transform="translate(0.625)"/>
</clipPath>
</defs>
</svg>
