<svg width="40" height="40" viewBox="0 0 40 40" fill="none" xmlns="http://www.w3.org/2000/svg">
<path d="M4 4C4 1.79086 5.79086 0 8 0H24L36 12V36C36 38.2091 34.2091 40 32 40H8C5.79086 40 4 38.2091 4 36V4Z" fill="#079455"/>
<path opacity="0.3" d="M24 0L36 12H28C25.7909 12 24 10.2091 24 8V0Z" fill="white"/>
<path d="M11.0497 25.1818L12.223 27.1648H12.2685L13.4474 25.1818H14.8366L13.0611 28.0909L14.8764 31H13.4616L12.2685 29.0142H12.223L11.0298 31H9.62074L11.4418 28.0909L9.65483 25.1818H11.0497ZM15.6151 31V25.1818H16.8452V29.9858H19.3395V31H15.6151ZM23.3104 26.8551C23.2876 26.6259 23.1901 26.4479 23.0178 26.321C22.8454 26.1941 22.6115 26.1307 22.3161 26.1307C22.1153 26.1307 21.9458 26.1591 21.8075 26.2159C21.6693 26.2708 21.5632 26.3475 21.4893 26.446C21.4174 26.5445 21.3814 26.6562 21.3814 26.7812C21.3776 26.8854 21.3994 26.9763 21.4467 27.054C21.496 27.1316 21.5632 27.1989 21.6484 27.2557C21.7337 27.3106 21.8321 27.3589 21.9439 27.4006C22.0556 27.4403 22.175 27.4744 22.3018 27.5028L22.8246 27.6278C23.0784 27.6847 23.3113 27.7604 23.5234 27.8551C23.7356 27.9498 23.9193 28.0663 24.0746 28.2045C24.2299 28.3428 24.3501 28.5057 24.4354 28.6932C24.5225 28.8807 24.567 29.0956 24.5689 29.3381C24.567 29.6941 24.4761 30.0028 24.2962 30.2642C24.1181 30.5237 23.8606 30.7254 23.5234 30.8693C23.1882 31.0114 22.7839 31.0824 22.3104 31.0824C21.8407 31.0824 21.4316 31.0104 21.0831 30.8665C20.7365 30.7225 20.4657 30.5095 20.2706 30.2273C20.0774 29.9432 19.9761 29.5919 19.9666 29.1733H21.157C21.1702 29.3684 21.2261 29.5312 21.3246 29.6619C21.425 29.7907 21.5585 29.8883 21.7251 29.9545C21.8937 30.0189 22.084 30.0511 22.2962 30.0511C22.5045 30.0511 22.6854 30.0208 22.8388 29.9602C22.9941 29.8996 23.1143 29.8153 23.1996 29.7074C23.2848 29.5994 23.3274 29.4754 23.3274 29.3352C23.3274 29.2045 23.2886 29.0947 23.2109 29.0057C23.1352 28.9167 23.0234 28.8409 22.8757 28.7784C22.7299 28.7159 22.5509 28.6591 22.3388 28.608L21.7053 28.4489C21.2147 28.3295 20.8274 28.143 20.5433 27.8892C20.2592 27.6354 20.1181 27.2936 20.12 26.8636C20.1181 26.5114 20.2119 26.2036 20.4013 25.9403C20.5926 25.6771 20.8549 25.4716 21.1882 25.3239C21.5215 25.1761 21.9003 25.1023 22.3246 25.1023C22.7564 25.1023 23.1333 25.1761 23.4553 25.3239C23.7791 25.4716 24.031 25.6771 24.2109 25.9403C24.3909 26.2036 24.4837 26.5085 24.4893 26.8551H23.3104ZM26.5497 25.1818L27.723 27.1648H27.7685L28.9474 25.1818H30.3366L28.5611 28.0909L30.3764 31H28.9616L27.7685 29.0142H27.723L26.5298 31H25.1207L26.9418 28.0909L25.1548 25.1818H26.5497Z" fill="white"/>
</svg>
